<?xml version="1.0" encoding="UTF-8" standalone="no"?>
<svg width="197px" height="183px" viewBox="0 0 197 183" version="1.1" xmlns="http://www.w3.org/2000/svg" xmlns:xlink="http://www.w3.org/1999/xlink" xmlns:sketch="http://www.bohemiancoding.com/sketch/ns">
    <!-- Generator: Sketch 3.5.2 (25235) - http://www.bohemiancoding.com/sketch -->
    <title>penguin logo</title>
    <desc>Created with Sketch.</desc>
    <defs></defs>
    <g id="Common" stroke="none" stroke-width="1" fill="none" fill-rule="evenodd" sketch:type="MSPage">
        <g id="Login-/-Register" sketch:type="MSArtboardGroup" transform="translate(-502.000000, -190.000000)">
            <g id="Group" sketch:type="MSLayerGroup" transform="translate(502.000000, 190.000000)">
                <g id="penguin-logo" sketch:type="MSShapeGroup">
                    <path d="M164.870863,140.249415 C170.147962,138.336523 120.39014,180.340443 129.907429,170.019115 C131.245778,168.567868 126.370184,168.243314 126.370184,166.05369 C126.370184,163.863429 127.953689,162.088265 129.907429,162.088265 C131.861168,162.088265 162.847079,140.983965 164.870863,140.249415" id="Fill-1" fill="#FFFFFF"></path>
                    <path d="M174.48634,91.7359233 C174.20241,98.5311533 172.901584,103.879599 168.545695,109.550049 C153.76194,128.791829 118.936717,170.460993 131.388994,168.917927 C133.781137,168.621429 129.95746,171.15601 128.480898,172.171118 C117.601495,179.649251 105.399378,182.917746 89.4323714,182.917108 C40.0410317,182.917108 0.00125079365,142.09408 0.00125079365,91.736561 C0.00125079365,41.3784042 40.0410317,0.555376307 89.4323714,0.555376307 C138.824337,0.555376307 176.57579,41.7584321 174.48634,91.7359233" id="Fill-2" fill="#1A1A1A"></path>
                    <path d="M131.959981,168.918564 C105.159225,176.596913 56.9886603,153.509582 48.7822032,108.846105 C41.0685587,66.8689652 67.7867619,30.4883101 114.761568,35.614223 C119.366365,36.116676 122.4946,36.6892683 129.067521,39.1052509 C150.262844,46.8983728 170.27179,72.6369721 169.795863,100.344575 C169.294921,129.537857 178.062359,131.430345 165.366178,140.434965 L131.959981,168.918564" id="Fill-3" fill="#FFFFFF"></path>
                    <path d="M109.829063,92.8128815 C109.829063,101.000059 116.338819,107.637157 124.368914,107.637157 C132.399635,107.637157 138.908765,101.000059 138.908765,92.8128815 C138.908765,84.6257038 132.399635,77.9886063 124.368914,77.9886063 C116.338819,77.9886063 109.829063,84.6257038 109.829063,92.8128815" id="Fill-4" fill="#2A210B"></path>
                    <path d="M132.585378,85.8914007 C132.585378,89.2370488 129.92494,91.948892 126.643483,91.948892 C123.362651,91.948892 120.702838,89.2370488 120.702838,85.8914007 C120.702838,82.5463902 123.362651,79.8339094 126.643483,79.8339094 C129.92494,79.8339094 132.585378,82.5463902 132.585378,85.8914007" id="Fill-5" fill="#FFFFFF"></path>
                    <path d="M167.750816,139.533355 C167.750816,139.533355 199.11259,123.018721 196.619759,120.579784 C190.417698,114.514003 169.53007,102.778411 169.53007,102.778411 C162.755771,106.219066 157.600625,109.16492 156.506806,120.721976 C155.690663,129.337641 159.234162,135.395132 165.366178,140.434965 L167.750816,139.533355" id="Fill-6" fill="#FFCB09"></path>
                </g>
            </g>
        </g>
    </g>
</svg>